<svg xmlns="http://www.w3.org/2000/svg" viewBox="0 0 167 66.42"><defs><style>.cls-1{fill:#003b4d;}.cls-2{fill:#ec1b2e;}</style></defs><g id="Layer_8" data-name="Layer 8"><path class="cls-1" d="M12.51,0H5.89A5.85,5.85,0,0,0,0,5.8v6.53a5.85,5.85,0,0,0,5.89,5.8h6.62a5.85,5.85,0,0,0,5.89-5.8V5.8A5.85,5.85,0,0,0,12.51,0"/><path class="cls-2" d="M33,0H26.39A5.85,5.85,0,0,0,20.5,5.8v6.53a5.85,5.85,0,0,0,5.89,5.8H33a5.84,5.84,0,0,0,5.89-5.8V5.8A5.84,5.84,0,0,0,33,0"/><path class="cls-2" d="M12.51,20.2H5.89A5.85,5.85,0,0,0,0,26v6.52a5.85,5.85,0,0,0,5.89,5.81h6.62a5.85,5.85,0,0,0,5.89-5.81V26a5.85,5.85,0,0,0-5.89-5.81"/><path class="cls-2" d="M33,20.2H26.39A5.85,5.85,0,0,0,20.5,26v6.52a5.85,5.85,0,0,0,5.89,5.81H33a5.85,5.85,0,0,0,5.89-5.81V26A5.85,5.85,0,0,0,33,20.2"/><path class="cls-1" d="M45.36,37.53V.61h3.81a2.37,2.37,0,0,1,1.59.69,3.2,3.2,0,0,1,.64,1.89v7.54a15.12,15.12,0,0,1,9.07-3,14.71,14.71,0,0,1,10.7,4.34,14.26,14.26,0,0,1,4.41,10.55,14.24,14.24,0,0,1-4.41,10.54,14.68,14.68,0,0,1-10.7,4.35,14.86,14.86,0,0,1-9.07-3l-3,3ZM60.47,13.7a8.91,8.91,0,0,0-6.41,2.62,8.83,8.83,0,0,0,0,12.63,9.14,9.14,0,0,0,12.81,0,8.83,8.83,0,0,0,0-12.63A8.88,8.88,0,0,0,60.47,13.7Z"/><path class="cls-1" d="M87.63,25.1l0,12.43h-6V.61h3.5A3.18,3.18,0,0,1,87,1.33a2.91,2.91,0,0,1,.67,1.79v18l0-.8v0L98.93,7.75h7.73l-13.37,15,13.37,14.83H98.93L87.69,25.13Z"/><path class="cls-1" d="M119.54,37.59a13.08,13.08,0,0,1-10.37-4.48l3.91-4.19s2.1,1.42,2.3,1.53A13.38,13.38,0,0,0,118,31.63a8.43,8.43,0,0,0,4.06.54,4,4,0,0,0,2.66-1.7c1.25-2.17-1.61-3.9-3.22-4.7-2.36-1.16-4.84-2.1-7.1-3.46a8.37,8.37,0,0,1-3.78-3.93,7.83,7.83,0,0,1-.55-2.83A7.36,7.36,0,0,1,112.67,10a11.2,11.2,0,0,1,7.25-2.34,12.54,12.54,0,0,1,5.4,1.14,15.26,15.26,0,0,1,5,3.16l-3.93,3.87A10.65,10.65,0,0,0,120,13.25a3.82,3.82,0,0,0-2.32.64,2.1,2.1,0,0,0-.34,3.2,8.53,8.53,0,0,0,2.41,1.5L122.48,20c4,2,8.54,3.9,8.54,9a7.91,7.91,0,0,1-2.76,6.17C126.42,36.75,123.28,37.55,119.54,37.59Z"/><path class="cls-1" d="M136.78,37.53V.61h3.51a2.77,2.77,0,0,1,1.83.76,2.66,2.66,0,0,1,.7,1.73v7.63a15.14,15.14,0,0,1,9.07-3,14.69,14.69,0,0,1,10.7,4.34A14.26,14.26,0,0,1,167,22.64a14.24,14.24,0,0,1-4.41,10.54,14.66,14.66,0,0,1-10.7,4.35,14.89,14.89,0,0,1-9.07-3l-3,3ZM151.89,13.7a8.92,8.92,0,0,0-6.41,2.62,8.83,8.83,0,0,0,0,12.63,9.15,9.15,0,0,0,12.82,0,8.83,8.83,0,0,0,0-12.63A8.92,8.92,0,0,0,151.89,13.7Z"/><path class="cls-1" d="M44.27,62.68a2.85,2.85,0,0,0,2-.71,2.58,2.58,0,0,0,.75-2v-.82l-1.4.06a4.92,4.92,0,0,0-2.4.51,1.53,1.53,0,0,0-.74,1.4A1.43,1.43,0,0,0,43,62.29a1.92,1.92,0,0,0,1.28.39m3.16,1-.28-1.3h-.06a3.84,3.84,0,0,1-1.38,1.16,4.29,4.29,0,0,1-1.71.3,3.1,3.1,0,0,1-2.15-.69,2.53,2.53,0,0,1-.78-2q0-2.76,4.47-2.89l1.56,0v-.57a2.29,2.29,0,0,0-.46-1.58,2,2,0,0,0-1.5-.51,6.23,6.23,0,0,0-2.61.7l-.43-1.05a6.58,6.58,0,0,1,1.5-.58,6.93,6.93,0,0,1,1.63-.2,3.54,3.54,0,0,1,2.44.72,3,3,0,0,1,.8,2.31v6.21Z"/><path class="cls-1" d="M54.62,62.66a2.56,2.56,0,0,0,2.08-.77,3.81,3.81,0,0,0,.64-2.47v-.29a4.55,4.55,0,0,0-.65-2.76,2.51,2.51,0,0,0-2.09-.83,2.15,2.15,0,0,0-1.88,1,4.63,4.63,0,0,0-.65,2.65,4.43,4.43,0,0,0,.65,2.63,2.18,2.18,0,0,0,1.9.89m2.8-.23h-.08a3.31,3.31,0,0,1-2.9,1.38,3.45,3.45,0,0,1-2.81-1.21,5.33,5.33,0,0,1-1-3.47,5.39,5.39,0,0,1,1-3.49,3.43,3.43,0,0,1,2.81-1.25,3.37,3.37,0,0,1,2.88,1.34h.11l-.06-.65,0-.64v-3.7h1.4V63.65H57.6Z"/><path class="cls-1" d="M63.77,63.65l-3.5-9.09h1.5l2,5.39c.44,1.26.71,2.08.79,2.45h.06c.07-.29.26-.9.59-1.82s1.06-2.93,2.21-6h1.5l-3.5,9.09Z"/><path class="cls-1" d="M72.7,62.68a2.85,2.85,0,0,0,2-.71,2.58,2.58,0,0,0,.75-2v-.82l-1.4.06a4.92,4.92,0,0,0-2.4.51,1.53,1.53,0,0,0-.74,1.4,1.4,1.4,0,0,0,.46,1.14,1.92,1.92,0,0,0,1.28.39m3.16,1-.28-1.3h-.07a3.82,3.82,0,0,1-1.37,1.16,4.31,4.31,0,0,1-1.72.3,3.14,3.14,0,0,1-2.15-.69,2.56,2.56,0,0,1-.77-2q0-2.76,4.47-2.89l1.56,0v-.57a2.25,2.25,0,0,0-.47-1.58,1.93,1.93,0,0,0-1.49-.51,6.23,6.23,0,0,0-2.61.7l-.43-1.05a6.41,6.41,0,0,1,1.5-.58,6.91,6.91,0,0,1,1.62-.2,3.57,3.57,0,0,1,2.45.72,3,3,0,0,1,.8,2.31v6.21Z"/><path class="cls-1" d="M85.81,63.65V57.77a2.36,2.36,0,0,0-.51-1.66,2.09,2.09,0,0,0-1.61-.55,2.69,2.69,0,0,0-2.12.77,3.86,3.86,0,0,0-.67,2.55v4.77H79.5V54.56h1.13l.23,1.24h.07a2.9,2.9,0,0,1,1.2-1,3.92,3.92,0,0,1,1.73-.37,3.53,3.53,0,0,1,2.51.79,3.37,3.37,0,0,1,.84,2.54v5.93Z"/><path class="cls-1" d="M93.53,63.81a4,4,0,0,1-3.1-1.21,5,5,0,0,1-1.1-3.44,5,5,0,0,1,1.12-3.52,4,4,0,0,1,3.18-1.25,6.76,6.76,0,0,1,1.33.14,5.13,5.13,0,0,1,1,.33L95.57,56a7,7,0,0,0-1-.3,4.65,4.65,0,0,0-1-.12q-2.81,0-2.81,3.53a4.17,4.17,0,0,0,.69,2.58,2.4,2.4,0,0,0,2,.89,6.16,6.16,0,0,0,2.36-.49v1.22a5,5,0,0,1-2.33.47"/><path class="cls-1" d="M101.17,55.54a2.32,2.32,0,0,0-1.78.72,3.18,3.18,0,0,0-.77,2h4.82a3,3,0,0,0-.59-2,2.06,2.06,0,0,0-1.68-.7m.38,8.27a4.26,4.26,0,0,1-3.23-1.22,4.72,4.72,0,0,1-1.19-3.41,5.26,5.26,0,0,1,1.1-3.5,3.69,3.69,0,0,1,3-1.29,3.55,3.55,0,0,1,2.75,1.12,4.29,4.29,0,0,1,1,3v.87H98.58a3.56,3.56,0,0,0,.82,2.43,2.84,2.84,0,0,0,2.2.83,7.49,7.49,0,0,0,2.94-.61v1.23a7.29,7.29,0,0,1-1.4.45,8.09,8.09,0,0,1-1.59.13"/><path class="cls-1" d="M110.66,62.66a2.53,2.53,0,0,0,2.07-.77,3.81,3.81,0,0,0,.65-2.47v-.29a4.47,4.47,0,0,0-.66-2.76,2.49,2.49,0,0,0-2.08-.83,2.14,2.14,0,0,0-1.88,1,4.55,4.55,0,0,0-.65,2.65,4.44,4.44,0,0,0,.64,2.63,2.21,2.21,0,0,0,1.91.89m2.79-.23h-.07a3.32,3.32,0,0,1-2.9,1.38,3.45,3.45,0,0,1-2.82-1.21,5.33,5.33,0,0,1-1-3.47,5.34,5.34,0,0,1,1-3.49,3.77,3.77,0,0,1,5.69.09h.11l-.06-.65,0-.64v-3.7h1.39V63.65h-1.13Z"/><polygon class="cls-1" points="27.32 43.54 15.44 63.81 21.73 63.81 27.32 54.27 32.91 63.81 39.2 63.81 27.32 43.54"/><path class="cls-1" d="M4.14,63.73,4,62.78H4A2.78,2.78,0,0,1,3,63.6a2.52,2.52,0,0,1-1.14.24,2,2,0,0,1-1.39-.45A1.61,1.61,0,0,1,0,62.14a1.53,1.53,0,0,1,.74-1.35,4.07,4.07,0,0,1,2.13-.51l1.15,0v-.4a2,2,0,0,0-.35-1.28,1.36,1.36,0,0,0-1.13-.43A3.78,3.78,0,0,0,.8,58.6l-.21-.47a4.64,4.64,0,0,1,2-.46,2,2,0,0,1,1.49.51,2.2,2.2,0,0,1,.49,1.58v4Zm-2.23-.39a2.1,2.1,0,0,0,1.53-.54A2,2,0,0,0,4,61.28V60.7l-1.06,0a4,4,0,0,0-1.81.39,1.12,1.12,0,0,0-.55,1A1.09,1.09,0,0,0,.93,63,1.41,1.41,0,0,0,1.91,63.34Z"/><path class="cls-1" d="M10.71,63.73V59.86a1.82,1.82,0,0,0-.38-1.3,1.52,1.52,0,0,0-1.19-.41,2.09,2.09,0,0,0-1.59.54,2.54,2.54,0,0,0-.5,1.75v3.29H6.5v-6H7l.1.82h0a2.28,2.28,0,0,1,2.09-.93c1.37,0,2.06.72,2.06,2.17v3.9Z"/><path class="cls-1" d="M123.53,63.84a2.57,2.57,0,0,1-2-.81,3.23,3.23,0,0,1-.74-2.25,3.3,3.3,0,0,1,.76-2.3,2.71,2.71,0,0,1,2.09-.82,4.23,4.23,0,0,1,1.5.26l-.15.49a4.24,4.24,0,0,0-1.36-.26,2.07,2.07,0,0,0-1.69.68,2.93,2.93,0,0,0-.57,1.94,2.84,2.84,0,0,0,.57,1.89,2,2,0,0,0,1.6.68,3.86,3.86,0,0,0,1.53-.29v.51A3.59,3.59,0,0,1,123.53,63.84Z"/><path class="cls-1" d="M131.53,60.74a3.35,3.35,0,0,1-.72,2.28,2.49,2.49,0,0,1-2,.82,2.62,2.62,0,0,1-1.4-.38,2.5,2.5,0,0,1-.93-1.09,4,4,0,0,1-.32-1.63,3.31,3.31,0,0,1,.72-2.27,2.49,2.49,0,0,1,2-.81,2.42,2.42,0,0,1,1.95.82A3.36,3.36,0,0,1,131.53,60.74Zm-4.77,0a3,3,0,0,0,.55,1.92,2.1,2.1,0,0,0,3.09,0,3,3,0,0,0,.55-1.92,2.94,2.94,0,0,0-.55-1.91,1.91,1.91,0,0,0-1.56-.68,1.84,1.84,0,0,0-1.54.68A3,3,0,0,0,126.76,60.74Z"/><path class="cls-1" d="M140.76,63.73V59.82a1.93,1.93,0,0,0-.35-1.27,1.31,1.31,0,0,0-1.06-.4,1.75,1.75,0,0,0-1.37.5,2.36,2.36,0,0,0-.44,1.59v3.49H137V59.66c0-1-.46-1.51-1.4-1.51a1.67,1.67,0,0,0-1.38.54,2.83,2.83,0,0,0-.44,1.75v3.29h-.55v-6h.46l.12.82h0a1.69,1.69,0,0,1,.71-.69,2.19,2.19,0,0,1,1-.24,1.74,1.74,0,0,1,1.83,1.05h0a2,2,0,0,1,.79-.78,2.33,2.33,0,0,1,1.13-.27,2,2,0,0,1,1.49.52,2.31,2.31,0,0,1,.49,1.65v3.9Z"/><path class="cls-1" d="M145.84,63.84a2.22,2.22,0,0,1-2-1h0l0,.46c0,.27,0,.56,0,.88v2.27h-.55V57.77h.46l.11.85h0a2.2,2.2,0,0,1,2-1,2.26,2.26,0,0,1,1.87.79,3.56,3.56,0,0,1,.64,2.3,3.46,3.46,0,0,1-.67,2.28A2.28,2.28,0,0,1,145.84,63.84Zm0-.49a1.68,1.68,0,0,0,1.44-.68,3.09,3.09,0,0,0,.51-1.9c0-1.75-.64-2.62-1.93-2.62a2,2,0,0,0-1.55.57,2.83,2.83,0,0,0-.49,1.87v.17a3.32,3.32,0,0,0,.47,2A1.9,1.9,0,0,0,145.83,63.35Z"/><path class="cls-1" d="M153.71,63.73l-.14-.95h0a2.71,2.71,0,0,1-.94.82,2.51,2.51,0,0,1-1.13.24,2,2,0,0,1-1.39-.45,1.61,1.61,0,0,1-.49-1.25,1.51,1.51,0,0,1,.74-1.35,4.07,4.07,0,0,1,2.13-.51l1.15,0v-.4a2,2,0,0,0-.35-1.28,1.37,1.37,0,0,0-1.13-.43,3.78,3.78,0,0,0-1.74.46l-.21-.47a4.64,4.64,0,0,1,2-.46,2,2,0,0,1,1.49.51,2.2,2.2,0,0,1,.49,1.58v4Zm-2.23-.39A2.12,2.12,0,0,0,153,62.8a2,2,0,0,0,.56-1.52V60.7l-1.06,0a4.1,4.1,0,0,0-1.82.39,1.13,1.13,0,0,0-.54,1,1.09,1.09,0,0,0,.35.87A1.41,1.41,0,0,0,151.48,63.34Z"/><path class="cls-1" d="M160.28,63.73V59.86a1.82,1.82,0,0,0-.38-1.3,1.54,1.54,0,0,0-1.19-.41,2.09,2.09,0,0,0-1.59.54,2.54,2.54,0,0,0-.5,1.75v3.29h-.55v-6h.47l.1.82h0a2.31,2.31,0,0,1,2.1-.93c1.37,0,2.06.72,2.06,2.17v3.9Z"/><path class="cls-1" d="M161.77,57.77h.57l1.28,3.34c.39,1,.64,1.72.74,2.08h0c.16-.47.41-1.17.76-2.11l1.28-3.31H167l-2.71,6.92a5.49,5.49,0,0,1-.55,1.14,1.35,1.35,0,0,1-.52.44,1.59,1.59,0,0,1-.72.15,2.66,2.66,0,0,1-.7-.11v-.47a3,3,0,0,0,.69.08.91.91,0,0,0,.5-.13,1.1,1.1,0,0,0,.39-.41,4.51,4.51,0,0,0,.41-.87q.22-.6.3-.78Z"/></g></svg>